<?xml version="1.0" standalone="no"?>
<svg width="100%" height="100%" version="1.1" viewBox="-70 -72.5 140 80" preserveAspectRatio="xMidYMid meet" xmlns="http://www.w3.org/2000/svg" xmlns:xlink="http://www.w3.org/1999/xlink">
  <defs>
    <linearGradient id="gauge-mark-green-gradient" x1="0" x2="1" y1="0" y2="0">
      <stop offset="0%" stop-color="#86bf53"/>
      <stop offset="50%" stop-color="#eceeed"/>
      <stop offset="100%" stop-color="#eceeed"/>
    </linearGradient>
    <linearGradient id="gauge-mark-red-gradient" x1="1" x2="0" y1="0" y2="0">
      <stop offset="0%" stop-color="#f0423e"/>
      <stop offset="50%" stop-color="#eceeed"/>
      <stop offset="100%" stop-color="#eceeed"/>
    </linearGradient>
    <linearGradient id="gauge-needle-dashed-gradient" x1="0" x2="0" y1="0" y2="1">
      <stop offset="0%" stop-color="#b2b4b3"/>
      <stop offset="100%" stop-color="#eef0ef"/>
    </linearGradient>
    <radialGradient id="gauge-background-gradient" cx="0.5" cy="1" r="1">
      <stop offset="0%" stop-color="#bdbcbc"/>
      <stop offset="10%" stop-color="#bdbcbc"/>
      <stop offset="20%" stop-color="#bdbcbc" stop-opacity="0.5"/>
      <stop offset="30%" stop-color="#bdbcbc" stop-opacity="0.25"/>
      <stop offset="40%" stop-color="#bdbcbc" stop-opacity="0"/>
      <stop offset="100%" stop-color="#bdbcbc" stop-opacity="0"/>
    </radialGradient>
    <linearGradient id="gauge-marker-outer-gradient" x1="0" x2="0" y1="0" y2="1">
      <stop offset="0%" stop-color="#cccccc"/>
      <stop offset="100%" stop-color="#ffffff"/>
    </linearGradient>
    <linearGradient id="gauge-marker-outer-stroke-gradient" x1="0" x2="0" y1="0" y2="1">
      <stop offset="0%" stop-color="#ffffff"/>
      <stop offset="100%" stop-color="#b7b9b8"/>
    </linearGradient>
    <linearGradient id="gauge-marker-inner-gradient" x1="0" x2="0" y1="0" y2="1">
      <stop offset="0%" stop-color="#d3d2d2"/>
      <stop offset="100%" stop-color="#656263"/>
    </linearGradient>
    <linearGradient id="tpl-gauge-needle-gradient" x1="0" x2="0" y1="0" y2="1">
      <stop offset="0%" stop-color="#49ef3f"/>
      <stop offset="50%" stop-color="#49ef3f"/>
      <stop offset="100%" stop-color="#eceeed"/>
    </linearGradient>
    <g id="tpl-gauge-needle-dashed" class="gauge-needle-dashed">
      <rect class="gauge-needle-fill" x="-1.5" y="-57" width="3" height="57"/>
      <line class="gauge-needle-mask" x1="0" y1="-57" x2="0" y2="0"/>
    </g>
    <g id="tpl-gauge-needle-plain" class="gauge-needle-plain">
      <rect class="gauge-needle-fill" x="-1.5" y="-57" width="3" height="57"/>
    </g>
    <g id="tpl-gauge-needle-none"></g>
    <g id="tpl-gauge-marker-plain">
      <circle class="gauge-marker-accent" cx="0" cy="-57" r="6"/>
      <circle class="gauge-marker-outer" cx="0" cy="-57" r="5.5"/>
      <circle class="gauge-marker-inner" cx="0" cy="-57" r="2.5"/>
      <text class="gauge-marker-text" x="0" y="-65" text-anchor="middle" ></text>
    </g>
    <g id="tpl-gauge-marker-none"></g>
    <style type="text/css"><![CDATA[
      .gauge-marker-accent { fill:none; stroke:#656263; stroke-width:0.5; }
      .gauge-marker-outer { fill:url(#gauge-marker-outer-gradient); stroke:url(#gauge-marker-outer-stroke-gradient); stroke-width:0.5; }
      .gauge-marker-inner { fill:url(#gauge-marker-inner-gradient); stroke:#656263; stroke-width:0.5; }
      .gauge-marker-text { font-family:Arial,sans-seriff; font-size:6px; }
      .gauge-background { fill:url(#gauge-background-gradient); }
      .gauge-mark-green-main { stroke:#86bf53; fill:url(#gauge-mark-green-gradient); stroke-width:0.5; }
      .gauge-mark-red-main { stroke:#f0423e; fill:url(#gauge-mark-red-gradient); stroke-width:0.5; }
      .gauge-mark { stroke:#656263; stroke-width:1; }
      .gauge-needle-dashed .gauge-needle-fill { stroke:#656263; fill:url(#gauge-needle-dashed-gradient); stroke-width:0.5; }
      .gauge-needle-dashed .gauge-needle-mask { stroke:#656263; stroke-dasharray:5,5; stroke-width:3.5; }
      .gauge-needle-plain .gauge-needle-fill { stroke:#656263; fill:url(#gauge-needle-dashed-gradient); stroke-width:0.5; }
    ]]></style>
  </defs>
  <rect class="gauge-background" x="-70" y="-115" width="140" height="115"/>
  <g class="gauge-markers">
    <line class="gauge-mark" x1="-48.0259" y1="-3.9109" x2="-57.6311" y2="-6.6930"/>
    <line class="gauge-mark" x1="-46.2579" y1="-8.9790" x2="-55.5095" y2="-12.7748"/>
    <line class="gauge-mark" x1="-43.9569" y1="-13.8284" x2="-52.7482" y2="-18.5941"/>
    <line class="gauge-mark" x1="-41.1492" y1="-18.4032" x2="-49.3790" y2="-24.0839"/>
    <line class="gauge-mark" x1="-37.8673" y1="-22.6507" x2="-45.4408" y2="-29.1808"/>
    <line class="gauge-mark" x1="-34.1490" y1="-26.5219" x2="-40.9788" y2="-33.8262"/>
    <line class="gauge-mark" x1="-30.0371" y1="-29.9721" x2="-36.0445" y2="-37.9666"/>
    <line class="gauge-mark" x1="-25.5791" y1="-32.9617" x2="-30.6949" y2="-41.5541"/>
    <line class="gauge-mark" x1="-20.8262" y1="-35.4562" x2="-24.9915" y2="-44.5475"/>
    <line class="gauge-mark" x1="-15.8334" y1="-37.4268" x2="-19.0001" y2="-46.9122"/>
    <line class="gauge-mark" x1="-10.6581" y1="-38.8508" x2="-12.7897" y2="-48.6210"/>
    <line class="gauge-mark" x1="-5.3599" y1="-39.7119" x2="-6.4319" y2="-49.6543"/>
    <line class="gauge-mark" x1="0.0000" y1="-40.0000" x2="0.0000" y2="-50.0000"/>
    <line class="gauge-mark" x1="5.3599" y1="-39.7119" x2="6.4319" y2="-49.6543"/>
    <line class="gauge-mark" x1="10.6581" y1="-38.8508" x2="12.7897" y2="-48.6210"/>
    <line class="gauge-mark" x1="15.8334" y1="-37.4268" x2="19.0001" y2="-46.9122"/>
    <line class="gauge-mark" x1="20.8262" y1="-35.4562" x2="24.9915" y2="-44.5475"/>
    <line class="gauge-mark" x1="25.5791" y1="-32.9617" x2="30.6949" y2="-41.5541"/>
    <line class="gauge-mark" x1="30.0371" y1="-29.9721" x2="36.0445" y2="-37.9666"/>
    <line class="gauge-mark" x1="34.1490" y1="-26.5219" x2="40.9788" y2="-33.8262"/>
    <line class="gauge-mark" x1="37.8673" y1="-22.6507" x2="45.4408" y2="-29.1808"/>
    <line class="gauge-mark" x1="41.1492" y1="-18.4032" x2="49.3790" y2="-24.0839"/>
    <line class="gauge-mark" x1="43.9569" y1="-13.8284" x2="52.7482" y2="-18.5941"/>
    <line class="gauge-mark" x1="46.2579" y1="-8.9790" x2="55.5095" y2="-12.7748"/>
    <line class="gauge-mark" x1="48.0259" y1="-3.9109" x2="57.6311" y2="-6.6930"/>
    <rect class="gauge-mark-green-main" x="46.5" y="-1" width="14" height="2" rx="1" ry="0.5"/>
    <rect class="gauge-mark-red-main" x="-60.5" y="-1" width="14" height="2" rx="0.5" ry="0.5"/>
  </g>
  <g class="dynamic"/>
  <g id="gauge-marker-origin">
    <circle class="gauge-marker-accent" cx="0" cy="0" r="6"/>
    <circle class="gauge-marker-outer" cx="0" cy="0" r="5.5"/>
    <circle class="gauge-marker-inner" cx="0" cy="0" r="2.5"/>
  </g>
</svg>
